<?xml version="1.0" encoding="UTF-8"?>
<svg id="Camada_1" data-name="Camada 1" xmlns="http://www.w3.org/2000/svg" viewBox="0 0 452.21 353.86">
  <defs>
    <style>
      .cls-1 {
        opacity: .5;
      }

      .cls-1, .cls-2 {
        fill: #535964;
        stroke-width: 0px;
      }
    </style>
  </defs>
  <path class="cls-1" d="M59.95,225c0-16.55-13.42-29.97-29.99-29.97S0,208.44,0,225s13.42,29.95,29.95,29.95,29.99-13.42,29.99-29.95Z"/>
  <path class="cls-2" d="M53.05,125.82c0-12.76-10.3-23.1-23.1-23.1s-23.1,10.34-23.1,23.1,10.38,23.1,23.1,23.1,23.1-10.34,23.1-23.1Z"/>
  <path class="cls-2" d="M151.98,324.15c0-12.6-10.22-22.83-22.85-22.83s-22.82,10.24-22.82,22.83,10.22,22.81,22.82,22.81,22.85-10.2,22.85-22.81Z"/>
  <path class="cls-2" d="M153.62,225c0-13.52-10.96-24.47-24.5-24.47s-24.46,10.96-24.46,24.47,10.96,24.48,24.46,24.48,24.5-10.98,24.5-24.48Z"/>
  <path class="cls-2" d="M147.59,125.82c0-10.17-8.25-18.42-18.46-18.42s-18.42,8.25-18.42,18.42,8.25,18.42,18.42,18.42,18.46-8.25,18.46-18.42Z"/>
  <path class="cls-1" d="M149.23,26.65c0-11.08-9.03-20.04-20.1-20.04s-20.06,8.97-20.06,20.04,8.99,20.09,20.06,20.09,20.1-8.98,20.1-20.09Z"/>
  <path class="cls-1" d="M258.01,324.15c0-16.41-13.29-29.69-29.71-29.69s-29.71,13.27-29.71,29.69,13.29,29.71,29.71,29.71,29.71-13.29,29.71-29.71Z"/>
  <path class="cls-1" d="M259.65,225c0-17.32-14.03-31.35-31.35-31.35s-31.35,14.03-31.35,31.35,14.03,31.33,31.35,31.33,31.35-14.03,31.35-31.33Z"/>
  <path class="cls-1" d="M247.26,125.82c0-10.46-8.45-18.96-18.96-18.96s-18.96,8.49-18.96,18.96,8.45,18.98,18.96,18.98,18.96-8.49,18.96-18.98Z"/>
  <path class="cls-2" d="M248.41,26.65c0-11.08-9.03-20.04-20.1-20.04s-20.1,8.97-20.1,20.04,9.02,20.09,20.1,20.09,20.1-8.98,20.1-20.09Z"/>
  <path class="cls-2" d="M339,324.15c0-6.38-5.17-11.55-11.53-11.55s-11.57,5.17-11.57,11.55,5.17,11.55,11.57,11.55,11.53-5.17,11.53-11.55Z"/>
  <path class="cls-2" d="M348.93,225c0-11.86-9.6-21.46-21.46-21.46s-21.46,9.6-21.46,21.46,9.6,21.44,21.46,21.44,21.46-9.6,21.46-21.44Z"/>
  <path class="cls-1" d="M353.04,125.82c0-14.11-11.45-25.56-25.56-25.56s-25.6,11.45-25.6,25.56,11.49,25.58,25.6,25.58,25.56-11.45,25.56-25.58Z"/>
  <path class="cls-1" d="M354.14,26.65c0-14.71-11.94-26.65-26.67-26.65s-26.67,11.94-26.67,26.65,11.9,26.69,26.67,26.69,26.67-11.94,26.67-26.69Z"/>
  <path class="cls-2" d="M438.18,324.15c0-6.38-5.17-11.55-11.53-11.55s-11.57,5.17-11.57,11.55,5.17,11.55,11.57,11.55,11.53-5.17,11.53-11.55Z"/>
  <path class="cls-1" d="M448.06,225c0-11.86-9.6-21.46-21.42-21.46s-21.46,9.6-21.46,21.46,9.6,21.44,21.46,21.44,21.42-9.6,21.42-21.44Z"/>
  <path class="cls-2" d="M452.21,125.82c0-14.11-11.49-25.56-25.56-25.56s-25.61,11.45-25.61,25.56,11.45,25.58,25.61,25.58,25.56-11.45,25.56-25.58Z"/>
</svg>