<?xml version="1.0" encoding="UTF-8"?>
<svg id="Camada_1" data-name="Camada 1" xmlns="http://www.w3.org/2000/svg" version="1.1" viewBox="0 0 1325.9 246.8">
  <defs>
    <style>
      .cls-1 {
        fill: #fdc635;
        stroke-width: 0px;
      }
    </style>
  </defs>
  <path class="cls-1" d="M321.9,224.8c-3.2,2.7-3.6,7.4-.9,10.5,2.7,3.2,7.4,3.6,10.5.9,3.2-2.7,3.6-7.4.9-10.5-2.7-3.2-7.4-3.6-10.5-.9Z"/>
  <path class="cls-1" d="M47.8,133.6c-3.2,2.7-3.6,7.4-.9,10.5,2.7,3.2,7.4,3.6,10.5.9,3.2-2.7,3.6-7.4.9-10.5-2.7-3.2-7.4-3.6-10.5-.9Z"/>
  <path class="cls-1" d="M519.1,28c-5.8,4.9-6.5,13.5-1.7,19.2,4.8,5.8,13.5,6.5,19.2,1.6,5.8-4.8,6.5-13.5,1.7-19.2s-13.5-6.5-19.2-1.7Z"/>
  <path class="cls-1" d="M1227.9,37.3h0c-16.8-19.9-46.5-22.5-66.4-5.7-19.9,16.8-22.5,46.5-5.7,66.4,16.8,19.9,46.5,22.5,66.4,5.7,19.9-16.8,22.5-46.5,5.7-66.4Z"/>
  <path class="cls-1" d="M490.1,117.8h0c-11.6-13.8-32.2-15.5-46-3.9-13.8,11.6-15.5,32.2-3.9,46,11.6,13.8,32.2,15.6,46,3.9,13.8-11.6,15.5-32.2,3.9-46h0Z"/>
  <path class="cls-1" d="M202.1,87.7c-8.3,7-9.4,19.4-2.4,27.7,7,8.3,19.4,9.4,27.7,2.4,8.3-7,9.4-19.4,2.4-27.7-7-8.3-19.4-9.4-27.7-2.4Z"/>
  <path class="cls-1" d="M435.9,217.4c-6.1,5.1-6.8,14.2-1.7,20.2s14.2,6.8,20.2,1.7c6.1-5.1,6.8-14.2,1.7-20.2s-14.2-6.8-20.2-1.7Z"/>
  <path class="cls-1" d="M792.5,133c-.9-9-8.9-15.4-17.9-14.5s-15.4,8.9-14.5,17.9c.9,9,8.9,15.4,17.9,14.5,9-.9,15.4-8.9,14.5-17.9h0Z"/>
  <path class="cls-1" d="M620.6,238.7c-2.2.2-3.9,2.2-3.6,4.5.2,2.2,2.2,3.9,4.5,3.6,2.2-.2,3.9-2.2,3.6-4.5s-2.2-3.9-4.5-3.6Z"/>
  <path class="cls-1" d="M9.4,8C3.7,8.6-.5,13.8,0,19.6c.6,5.8,5.8,10,11.5,9.4,5.8-.6,10-5.8,9.4-11.5-.6-5.8-5.8-10-11.5-9.4Z"/>
  <path class="cls-1" d="M694.8,97c54.3,0,98.5-43.2,100.3-97h-200.6c1.7,53.9,46,97,100.3,97Z"/>
</svg>