<?xml version="1.0" encoding="utf-8"?>
<!-- Generator: Adobe Illustrator 20.1.0, SVG Export Plug-In . SVG Version: 6.00 Build 0)  -->
<svg version="1.1" id="Layer_1" xmlns="http://www.w3.org/2000/svg" xmlns:xlink="http://www.w3.org/1999/xlink" x="0px" y="0px"
	 viewBox="0 0 601.5 697" style="enable-background:new 0 0 601.5 697;" xml:space="preserve">
<style type="text/css">
	.st0{fill:#CDCCCC;}
	.st1{opacity:0.7;}
	.st2{fill:#4E4D4D;}
</style>
<g>
	<g id="Camada_1">
		<g>
			<g>
				<g>
					<g>
						<polygon class="st0" points="495.4,299.8 494.9,299.1 493.2,300.4 495.4,300.6 						"/>
						<polygon class="st0" points="497.7,299.1 495.5,299 495.4,299.8 495.4,300.6 493.2,300.4 399.7,372.3 344.5,289.6 
							493.2,300.4 494.9,299.1 495.4,299.8 495.5,299 341.3,287.7 399.3,374.7 						"/>
						<polygon class="st0" points="343.2,289.4 342.9,288.6 342.2,289.1 342.6,289.7 						"/>
						<polygon class="st0" points="400.9,374.1 343.2,287.6 342.6,287.9 342.9,288.6 343.2,289.4 342.6,289.7 398.1,372.9 
							20.2,433.8 342.6,289.7 342.2,289.1 342.9,288.6 342.6,287.9 13.7,434.8 14.2,436.4 						"/>
						<polygon class="st0" points="342.9,288.6 342.6,287.9 338.4,289.7 342.9,289.5 						"/>
						<polygon class="st0" points="399.6,374.3 399.5,373.5 398.7,373.3 398.3,374.5 						"/>
						<polygon class="st0" points="541.3,99.4 540.7,98.8 539.9,98.6 539.3,101.3 						"/>
						<polygon class="st0" points="542.1,96.3 540.2,98.2 540.7,98.8 541.3,99.4 539.3,101.3 494.8,298.9 344.8,287.9 539.3,101.3 
							539.9,98.6 540.7,98.8 540.2,98.2 341,289.3 496.1,300.6 						"/>
						<polygon class="st0" points="342.9,288.6 342.8,287.8 336.8,288.1 342.7,289.4 						"/>
						<polygon class="st0" points="14,435.6 13.6,435 12,436 13.8,436.4 						"/>
						<polygon class="st0" points="601.5,637.2 578.5,450 592.2,459.3 592.2,458.9 593,458.9 592.6,459.6 592.2,459.3 601.5,621.6 
							601.5,592.6 593.8,458.4 593.5,458.2 577.8,447.6 576.3,446.5 601.5,650.7 						"/>
						<polygon class="st0" points="592.6,459.6 593,458.9 592.2,458.9 592.2,459.3 						"/>
						<polygon class="st0" points="495.7,298.5 494.9,299.1 495.4,299.8 495.9,300.4 495.2,301 575.5,446.5 401.1,373.3 495.2,301 
							494.7,300.2 495.4,299.8 494.9,299.1 397.8,373.7 579.3,449.9 						"/>
						<polygon class="st0" points="495.9,300.4 495.4,299.8 494.7,300.2 495.2,301 						"/>
						<polygon class="st0" points="14.5,436.3 14,435.6 13.3,436 13.7,436.9 						"/>
						<polygon class="st0" points="540.7,98.8 540.2,98.2 539.4,99 540.3,99.5 						"/>
						<polygon class="st0" points="601.5,448.3 592.9,457.8 578.8,448.2 601.5,429.1 601.5,426.9 576,448.3 592.6,459.6 593.2,460 
							601.5,450.8 						"/>
						<polygon class="st0" points="601.5,426.9 577.6,447 497.2,301.2 601.5,333.8 601.5,332 493.7,298.3 577.2,449.5 601.5,429.1 
													"/>
						<polygon class="st0" points="601.5,332 496.4,299.2 541,101.1 601.5,210.7 601.5,207.2 540.4,96.5 494.5,300.3 601.5,333.8 
													"/>
						<polygon class="st0" points="601.5,592.6 594,462.1 601.5,474.3 601.5,471.1 593.8,458.4 592.2,458.9 601.5,621.5 						"/>
						<polygon class="st0" points="578,448.8 577.4,448.2 576.6,448.4 576.8,450.2 						"/>
						<polygon class="st0" points="577.4,448.2 576.8,447.7 576,448.6 577.1,449 						"/>
					</g>
					<g class="st1">
						<polygon class="st0" points="276.3,312.2 275.5,312.1 275.1,312.8 276.2,313.6 						"/>
						<polygon class="st0" points="58,465 58.6,462.4 56.7,464.2 57.2,464.8 						"/>
						<polygon class="st0" points="57.8,465.4 59.4,464 57.2,464 57.2,464.8 						"/>
						<polygon class="st0" points="234.5,307.6 234.3,306.5 233.5,306.6 233.4,307.5 						"/>
						<polygon class="st0" points="234.3,306.6 234.3,305.9 233.6,305.8 233.5,306.6 						"/>
						<polygon class="st0" points="344.2,11 345.2,8.9 343.1,9.9 343.4,10.7 						"/>
						<polygon class="st0" points="343.5,9.8 343.5,9.8 343.5,9.8 						"/>
						<polygon class="st0" points="343.4,10.7 343.5,9.8 343.4,9.8 343.4,11.5 						"/>
						<polygon class="st0" points="276.3,311.9 276.1,311.1 275.4,311.3 275.5,312.1 						"/>
						<polygon class="st0" points="355.6,296.5 355.6,295.8 354.8,295.7 354.8,296.5 						"/>
						<polygon class="st0" points="601.5,321 355.6,295.8 355.6,296.5 354.8,296.5 354.8,295.7 355.6,295.8 344.4,12.7 601.5,259.5 
							601.5,257.2 342.5,8.6 353.9,297.3 354.7,297.3 601.5,322.7 						"/>
						<polygon class="st0" points="307.3,334.1 306.8,333.4 306.3,332.7 306.8,332.4 277.6,312.5 351.5,298 306.8,332.4 
							307.3,332.7 306.8,333.4 307.3,334.1 355.3,297.2 354.6,295.7 273.4,311.7 306.8,334.4 						"/>
						<polygon class="st0" points="307.3,332.7 306.8,332.4 306.3,332.7 306.8,333.4 						"/>
						<polygon class="st0" points="307.9,333.6 307.5,333 306.8,333.4 307.3,334.1 						"/>
						<polygon class="st0" points="306.8,333.4 307.5,333 307.9,333.6 354.2,298 387,477 307.9,333.6 307.3,334.1 306.8,333.4 
							306.1,333.8 388,482.3 389.6,481.7 355.3,295 305.7,333.2 306.1,333.8 						"/>
						<polygon class="st0" points="389.6,481.7 389.4,480.9 388.6,481.1 388.7,481.9 						"/>
						<polygon class="st0" points="601.5,430.2 601.5,428.5 389.4,480.9 389.6,481.7 388.7,481.9 388.6,481.1 389.4,480.9 
							355.8,297.8 601.5,391.3 601.5,389.5 353.7,295.2 388.1,482.9 388.9,482.7 						"/>
						<polygon class="st0" points="601.5,389.5 361,298 354.7,297.3 354.8,296.5 355.1,295.7 361,298 601.5,322.7 601.5,321 
							354.8,295.7 354.5,297.3 601.5,391.3 						"/>
						<polygon class="st0" points="354.7,297.3 361,298 355.1,295.7 354.8,296.5 						"/>
						<polygon class="st0" points="390.2,482.3 389.4,481.3 388.7,481.9 388.9,482.7 						"/>
					</g>
				</g>
				<g>
					<path class="st2" d="M397.5,377.3c2.4,1.6,5.7,1,7.4-1.4c1.6-2.4,1-5.7-1.4-7.4c-2.4-1.6-5.7-1-7.4,1.4
						C394.5,372.3,395.1,375.6,397.5,377.3z"/>
					<path class="st2" d="M338.5,294.1c2.4,1.6,5.7,1,7.4-1.4c1.6-2.4,1-5.7-1.4-7.4c-2.4-1.6-5.7-1-7.4,1.4
						C335.5,289.1,336.1,292.4,338.5,294.1z"/>
					<path class="st2" d="M259.4,282.4c5.1,3.5,12.1,2.1,15.5-3c3.5-5.1,2.2-12.1-3-15.5c-5.1-3.5-12.1-2.2-15.5,3
						C253,271.9,254.3,278.9,259.4,282.4L259.4,282.4z"/>
					<path class="st2" d="M532.4,110.7c5.1,3.5,12.1,2.2,15.5-3c3.5-5.1,2.2-12.1-3-15.5s-12.1-2.2-15.5,3S527.3,107.2,532.4,110.7
						L532.4,110.7z"/>
					<path class="st2" d="M601.5,665.4c-2.2,0.6-4.2,1.9-5.5,3.9c-3,4.5-1.9,10.5,2.6,13.6c0.9,0.6,1.9,1.1,3,1.4L601.5,665.4
						L601.5,665.4z"/>
					<path class="st2" d="M304.8,341.2c2.8,1.9,6.5,1.2,8.4-1.6s1.2-6.5-1.6-8.4s-6.5-1.2-8.4,1.6S302.1,339.3,304.8,341.2z"/>
					<path class="st2" d="M593,463.3c1.5,1,3.5,0.6,4.5-0.9c1-1.5,0.6-3.5-0.9-4.5c-1.5-1-3.5-0.6-4.5,0.9
						C591.2,460.2,591.5,462.3,593,463.3L593,463.3z"/>
					<path class="st2" d="M229.2,313.2c2.9,2,6.8,1.2,8.7-1.7s1.2-6.8-1.7-8.7c-2.9-2-6.8-1.2-8.7,1.7S226.4,311.2,229.2,313.2z"/>
					<path class="st2" d="M387.2,487.7c2.9,1.9,6.8,1.2,8.7-1.7s1.2-6.8-1.7-8.7c-2.9-1.9-6.8-1.2-8.7,1.7S384.3,485.8,387.2,487.7z
						"/>
					<path class="st2" d="M249.4,400.4c1.5,1,3.5,0.6,4.5-0.9c1-1.5,0.6-3.5-0.9-4.5c-1.5-1-3.5-0.6-4.5,0.9
						C247.5,397.4,247.9,399.4,249.4,400.4L249.4,400.4z"/>
					<path class="st2" d="M55.4,468.1c1.5,1,3.5,0.6,4.5-0.9c1-1.5,0.6-3.5-0.9-4.5c-1.5-1-3.5-0.6-4.5,0.9
						C53.5,465.1,53.9,467.1,55.4,468.1L55.4,468.1z"/>
					<path class="st2" d="M283.2,398.8c3.6,2.5,8.5,1.5,11-2.1c2.5-3.6,1.5-8.5-2.1-11c-3.6-2.5-8.5-1.5-11,2.1
						C278.6,391.4,279.5,396.4,283.2,398.8z"/>
					<path class="st2" d="M10.2,443.1c3.6,2.5,8.6,1.5,11-2.1s1.5-8.5-2.1-11c-3.6-2.5-8.6-1.5-11,2.1S6.6,440.6,10.2,443.1z"/>
					<path class="st2" d="M492.3,304.2c2.8,1.9,6.7,1.2,8.6-1.6c1.9-2.8,1.2-6.7-1.6-8.6c-2.8-1.9-6.7-1.2-8.6,1.6
						C488.7,298.5,489.4,302.3,492.3,304.2z"/>
					<path class="st2" d="M341,14c1.5,1,3.5,0.6,4.5-0.9c1-1.5,0.6-3.5-0.9-4.5c-1.5-1-3.5-0.6-4.5,0.9C339.2,10.9,339.5,13,341,14
						L341,14z"/>
					<path class="st2" d="M393.9,63.1c1.5,1,3.5,0.6,4.5-0.9c1-1.5,0.6-3.5-0.9-4.5c-1.5-1-3.5-0.6-4.5,0.9
						C392,60,392.4,62.1,393.9,63.1L393.9,63.1z"/>
					<path class="st2" d="M210.9,262.8c1.5,1,3.5,0.6,4.5-0.9c1-1.5,0.6-3.5-0.9-4.5c-1.5-1-3.5-0.6-4.5,0.9
						C209.1,259.8,209.5,261.8,210.9,262.8L210.9,262.8z"/>
					<path class="st2" d="M572.7,458.1c3.7,2.5,8.8,1.6,11.3-2.1c2.5-3.7,1.6-8.8-2.2-11.3c-3.7-2.5-8.8-1.6-11.3,2.2
						C568,450.5,569,455.6,572.7,458.1L572.7,458.1z"/>
					<path class="st2" d="M333.5,386.8c1.5,1,3.5,0.6,4.5-0.9c1-1.5,0.6-3.5-0.9-4.5c-1.5-1-3.5-0.6-4.5,0.9
						C331.6,383.8,332,385.8,333.5,386.8z"/>
					<path class="st2" d="M237.2,338.9c0.9,0.6,2.1,0.4,2.7-0.5s0.4-2.1-0.5-2.7c-0.9-0.6-2.1-0.4-2.7,0.5S236.3,338.3,237.2,338.9z
						"/>
					<path class="st2" d="M105.4,422.6c0.9,0.6,2.1,0.4,2.7-0.5s0.4-2.1-0.5-2.7c-0.9-0.6-2.1-0.4-2.7,0.5S104.5,422,105.4,422.6z"
						/>
					<path class="st2" d="M63.7,430.1c0.9,0.6,2.1,0.4,2.7-0.5c0.6-0.9,0.4-2.1-0.5-2.7s-2.1-0.4-2.7,0.5S62.8,429.5,63.7,430.1z"/>
					<path class="st2" d="M26.1,436.3c0.9,0.6,2.1,0.4,2.7-0.5c0.6-0.9,0.4-2.1-0.5-2.7c-0.9-0.6-2.1-0.4-2.7,0.5
						C24.9,434.4,25.2,435.7,26.1,436.3z"/>
					<path class="st2" d="M347.8,302.7c0.9,0.6,2.1,0.4,2.7-0.5s0.4-2.1-0.5-2.7s-2.1-0.4-2.7,0.5S346.9,302.1,347.8,302.7z"/>
					<path class="st2" d="M356.4,298.2c0.9,0.6,2.1,0.4,2.7-0.5s0.4-2.1-0.5-2.7s-2.1-0.4-2.7,0.5S355.5,297.6,356.4,298.2z"/>
					<path class="st2" d="M265,273.4c0.9,0.6,2.1,0.4,2.7-0.5s0.4-2.1-0.5-2.7s-2.1-0.4-2.7,0.5S264.1,272.8,265,273.4z"/>
					<path class="st2" d="M306.5,307.2c0.9,0.6,2.1,0.4,2.7-0.5s0.4-2.1-0.5-2.7s-2.1-0.4-2.7,0.5S305.6,306.6,306.5,307.2z"/>
					<path class="st2" d="M274.1,313.9c0.9,0.6,2.1,0.4,2.7-0.5s0.4-2.1-0.5-2.7s-2.1-0.4-2.7,0.5S273.2,313.3,274.1,313.9z"/>
					<path class="st2" d="M570.5,438.4c0.9,0.6,2.1,0.4,2.7-0.5c0.6-0.9,0.4-2.1-0.5-2.7c-0.9-0.6-2.1-0.4-2.7,0.5
						S569.6,437.8,570.5,438.4z"/>
					<path class="st2" d="M486.3,151.9c0.9,0.6,2.1,0.4,2.7-0.5s0.4-2.1-0.5-2.7s-2.1-0.4-2.7,0.5S485.4,151.3,486.3,151.9z"/>
					<path class="st2" d="M280.8,319.2c0.9,0.6,2.1,0.4,2.7-0.5s0.4-2.1-0.5-2.7s-2.1-0.4-2.7,0.5S279.9,318.6,280.8,319.2z"/>
					<path class="st2" d="M267.9,395.5c0.9,0.6,2.1,0.4,2.7-0.5s0.4-2.1-0.5-2.7s-2.1-0.4-2.7,0.5S267,394.9,267.9,395.5z"/>
					<path class="st2" d="M351.8,281.6c1.5,1,3.6,0.6,4.6-0.9c1-1.5,0.6-3.6-0.9-4.6c-1.5-1-3.6-0.6-4.6,0.9
						C349.9,278.5,350.3,280.6,351.8,281.6z"/>
					<path class="st2" d="M230.6,266.7c0.9,0.6,2.1,0.4,2.7-0.5s0.4-2.1-0.5-2.7c-0.9-0.6-2.1-0.4-2.7,0.5S229.7,266.1,230.6,266.7z
						"/>
					<path class="st2" d="M349.4,196.3c0.9,0.6,2.1,0.4,2.7-0.5s0.4-2.1-0.5-2.7s-2.1-0.4-2.7,0.5S348.5,195.7,349.4,196.3z"/>
				</g>
			</g>
		</g>
	</g>
</g>
</svg>
