<?xml version="1.0" encoding="UTF-8"?>
<svg id="Camada_2" data-name="Camada 2" xmlns="http://www.w3.org/2000/svg" version="1.1" viewBox="0 0 29.5 29.4">
  <defs>
    <style>
      .cls-1 {
        fill: none;
        stroke: #fff;
        stroke-miterlimit: 10;
      }

      .cls-2 {
        fill: #8b0000;
        stroke-width: 0px;
      }
    </style>
  </defs>
  <circle class="cls-2" cx="14.7" cy="14.7" r="14.7"/>
  <g>
    <g id="Camada_1-2" data-name="Camada 1-2">
      <g>
        <path class="cls-1" d="M7.9,15l-4.7,2.3c.6,2.4,1.8,4.6,3.6,6.2l4.6-2.7M18.2,8.9V3.7c-1.1-.3-2.3-.6-3.5-.6h0c-1.2,0-2.4.2-3.6.6l-.2,5.1M18.3,20.7l4.5,2.6c1.7-1.6,3-3.8,3.5-6.2l-4.6-2.1"/>
        <path class="cls-1" d="M14.8,22c-1.2,0-2.3-.3-3.3-.8v4.6c1,.3,2.1.5,3.2.5h0c1.2,0,2.4-.2,3.4-.6v-4.6c-1,.6-2.1.9-3.3.9h0Z"/>
        <path class="cls-1" d="M10.6,8.7l-3.4-2c-1.6,1.6-2.9,3.5-3.3,5.8l3.8,2.1c0-2.4,1.1-4.7,3-6h0Z"/>
        <path class="cls-1" d="M22,14.7l3.6-2.1c-.7-2.4-1.8-4.4-3.3-5.8l-3.6,2.1c2,1.2,3.3,3.3,3.3,5.8h0Z"/>
      </g>
    </g>
    <circle class="cls-1" cx="14.8" cy="14.7" r="4"/>
  </g>
</svg>