<?xml version="1.0" encoding="UTF-8"?>
<svg id="Camada_1" data-name="Camada 1" xmlns="http://www.w3.org/2000/svg" viewBox="0 0 618.34 595.75">
  <defs>
    <style>
      .cls-1 {
        fill: #535964;
        stroke-width: 0px;
      }
    </style>
  </defs>
  <g>
    <rect class="cls-1" x="31.06" y="532.69" width=".94" height="63.06"/>
    <rect class="cls-1" x="31.06" y="532.69" width=".94" height="63.06" transform="translate(595.75 532.69) rotate(90)"/>
  </g>
  <g>
    <rect class="cls-1" x="169.88" y="532.69" width=".94" height="63.06"/>
    <rect class="cls-1" x="169.88" y="532.69" width=".94" height="63.06" transform="translate(734.57 393.87) rotate(90)"/>
  </g>
  <g>
    <rect class="cls-1" x="308.7" y="532.69" width=".94" height="63.06"/>
    <rect class="cls-1" x="308.7" y="532.69" width=".94" height="63.06" transform="translate(873.39 255.05) rotate(90)"/>
  </g>
  <g>
    <rect class="cls-1" x="447.52" y="532.69" width=".94" height="63.06"/>
    <rect class="cls-1" x="447.52" y="532.69" width=".94" height="63.06" transform="translate(1012.21 116.23) rotate(90)"/>
  </g>
  <g>
    <rect class="cls-1" x="586.34" y="532.69" width=".94" height="63.06"/>
    <rect class="cls-1" x="586.34" y="532.69" width=".94" height="63.06" transform="translate(1151.03 -22.59) rotate(90)"/>
  </g>
  <g>
    <rect class="cls-1" x="31.06" y="399.52" width=".94" height="63.06"/>
    <rect class="cls-1" x="31.06" y="399.52" width=".94" height="63.06" transform="translate(462.58 399.52) rotate(90)"/>
  </g>
  <g>
    <rect class="cls-1" x="169.88" y="399.52" width=".94" height="63.06"/>
    <rect class="cls-1" x="169.88" y="399.52" width=".94" height="63.06" transform="translate(601.4 260.7) rotate(90)"/>
  </g>
  <g>
    <rect class="cls-1" x="308.7" y="399.52" width=".94" height="63.06"/>
    <rect class="cls-1" x="308.7" y="399.52" width=".94" height="63.06" transform="translate(740.22 121.88) rotate(90)"/>
  </g>
  <g>
    <rect class="cls-1" x="447.52" y="399.52" width=".94" height="63.06"/>
    <rect class="cls-1" x="447.52" y="399.52" width=".94" height="63.06" transform="translate(879.04 -16.94) rotate(90)"/>
  </g>
  <g>
    <rect class="cls-1" x="586.34" y="399.52" width=".94" height="63.06"/>
    <rect class="cls-1" x="586.34" y="399.52" width=".94" height="63.06" transform="translate(1017.86 -155.76) rotate(90)"/>
  </g>
  <g>
    <rect class="cls-1" x="31.06" y="266.35" width=".94" height="63.06"/>
    <rect class="cls-1" x="31.06" y="266.35" width=".94" height="63.06" transform="translate(329.4 266.35) rotate(90)"/>
  </g>
  <g>
    <rect class="cls-1" x="169.88" y="266.35" width=".94" height="63.06"/>
    <rect class="cls-1" x="169.88" y="266.35" width=".94" height="63.06" transform="translate(468.23 127.53) rotate(90)"/>
  </g>
  <g>
    <rect class="cls-1" x="308.7" y="266.35" width=".94" height="63.06"/>
    <rect class="cls-1" x="308.7" y="266.35" width=".94" height="63.06" transform="translate(607.05 -11.29) rotate(90)"/>
  </g>
  <g>
    <rect class="cls-1" x="447.52" y="266.35" width=".94" height="63.06"/>
    <rect class="cls-1" x="447.52" y="266.35" width=".94" height="63.06" transform="translate(745.87 -150.11) rotate(90)"/>
  </g>
  <g>
    <rect class="cls-1" x="586.34" y="266.35" width=".94" height="63.06"/>
    <rect class="cls-1" x="586.34" y="266.35" width=".94" height="63.06" transform="translate(884.69 -288.94) rotate(90)"/>
  </g>
  <g>
    <rect class="cls-1" x="31.06" y="133.17" width=".94" height="63.06"/>
    <rect class="cls-1" x="31.06" y="133.17" width=".94" height="63.06" transform="translate(196.23 133.17) rotate(90)"/>
  </g>
  <g>
    <rect class="cls-1" x="169.88" y="133.17" width=".94" height="63.06"/>
    <rect class="cls-1" x="169.88" y="133.17" width=".94" height="63.06" transform="translate(335.05 -5.65) rotate(90)"/>
  </g>
  <g>
    <rect class="cls-1" x="308.7" y="133.17" width=".94" height="63.06"/>
    <rect class="cls-1" x="308.7" y="133.17" width=".94" height="63.06" transform="translate(473.87 -144.47) rotate(90)"/>
  </g>
  <g>
    <rect class="cls-1" x="447.52" y="133.17" width=".94" height="63.06"/>
    <rect class="cls-1" x="447.52" y="133.17" width=".94" height="63.06" transform="translate(612.69 -283.29) rotate(90)"/>
  </g>
  <g>
    <rect class="cls-1" x="586.34" y="133.17" width=".94" height="63.06"/>
    <rect class="cls-1" x="586.34" y="133.17" width=".94" height="63.06" transform="translate(751.51 -422.11) rotate(90)"/>
  </g>
  <g>
    <rect class="cls-1" x="31.06" width=".94" height="63.06"/>
    <rect class="cls-1" x="31.06" y="0" width=".94" height="63.06" transform="translate(63.06 0) rotate(90)"/>
  </g>
  <g>
    <rect class="cls-1" x="169.88" width=".94" height="63.06"/>
    <rect class="cls-1" x="169.88" y="0" width=".94" height="63.06" transform="translate(201.88 -138.82) rotate(90)"/>
  </g>
  <g>
    <rect class="cls-1" x="308.7" width=".94" height="63.06"/>
    <rect class="cls-1" x="308.7" y="0" width=".94" height="63.06" transform="translate(340.7 -277.64) rotate(90)"/>
  </g>
  <g>
    <rect class="cls-1" x="447.52" width=".94" height="63.06"/>
    <rect class="cls-1" x="447.52" y="0" width=".94" height="63.06" transform="translate(479.52 -416.46) rotate(90)"/>
  </g>
  <g>
    <rect class="cls-1" x="586.34" width=".94" height="63.06"/>
    <rect class="cls-1" x="586.34" y="0" width=".94" height="63.06" transform="translate(618.34 -555.28) rotate(90)"/>
  </g>
</svg>