<?xml version="1.0" encoding="UTF-8"?>
<svg id="Camada_1" data-name="Camada 1" xmlns="http://www.w3.org/2000/svg" viewBox="0 0 849.06 635.1">
  <defs>
    <style>
      .cls-1 {
        fill: #cdcccc;
      }

      .cls-1, .cls-2 {
        stroke-width: 0px;
      }

      .cls-3 {
        opacity: .2;
      }

      .cls-2 {
        fill: #4e4d4d;
      }

      .cls-4 {
        opacity: .7;
      }
    </style>
  </defs>
  <g class="cls-3">
    <g>
      <g>
        <g>
          <polygon class="cls-1" points="223.97 635.1 53.98 254.82 244.15 134.58 274.96 635.1 277.61 635.1 246.53 130 50.65 253.78 221.13 635.1 223.97 635.1"/>
          <polygon class="cls-1" points="277.63 635.1 246.71 133.73 419.51 144.57 313.67 635.1 316.35 635.1 422.72 142.17 243.92 130.93 274.96 635.1 277.63 635.1"/>
          <polygon class="cls-1" points="419.87 143.08 421.14 143.4 421.22 142.07 420.13 141.98 419.87 143.08"/>
          <polygon class="cls-1" points="421.14 143.4 421.63 144.63 430.13 141.22 420.97 142.07 421.14 143.4"/>
          <polygon class="cls-1" points="520.44 103.33 521.75 103.35 521.21 102.07 520.4 102.43 520.44 103.33"/>
          <polygon class="cls-1" points="52.31 254.25 53.36 253.55 51.68 251.06 51.03 253.95 52.31 254.25"/>
          <polygon class="cls-1" points="247.45 132.52 246.25 131.38 245.36 132.32 244.42 133.22 243.22 132.08 54.33 251.4 112.6 7.74 243.22 132.08 244.64 131.21 245.36 132.32 246.25 131.38 111.07 2.71 50.28 257.11 247.45 132.52"/>
          <polygon class="cls-1" points="244.42 133.22 245.36 132.32 244.64 131.21 243.22 132.08 244.42 133.22"/>
          <polygon class="cls-1" points="110.52 5.59 111.82 5.25 111.9 3.92 110.02 3.78 110.52 5.59"/>
          <polygon class="cls-1" points="245.36 132.32 246.25 131.38 245.21 130.37 244.28 131.5 245.36 132.32"/>
          <polygon class="cls-1" points="111.82 5.25 113.06 4.88 112.62 3.35 111.22 4.08 111.82 5.25"/>
          <polygon class="cls-1" points="51.23 254.98 52.31 254.25 51.69 253.1 50.35 253.73 51.23 254.98"/>
          <polygon class="cls-1" points="316.34 635.1 421.81 146.43 797.42 635.1 800.69 635.1 420.43 140.32 313.65 635.1 316.34 635.1"/>
        </g>
        <g class="cls-4">
          <polygon class="cls-1" points="5.16 323.43 6.16 322.57 7.15 321.72 9.92 324.81 571.07 456.86 256.72 599.9 9.92 324.81 5.85 323.87 6.16 322.57 5.16 323.43 256.05 603.06 579.12 456.06 2.38 320.36 5.16 323.43"/>
          <polygon class="cls-1" points="5.85 323.87 9.92 324.81 7.15 321.72 6.16 322.57 5.85 323.87"/>
          <polygon class="cls-1" points="5.16 323.43 7.48 325.98 7.47 322.59 6.16 322.57 5.16 323.43"/>
          <polygon class="cls-1" points="254.8 603.09 256.6 602.75 256.38 601.49 255.03 601.29 254.8 603.09"/>
          <polygon class="cls-1" points="809.54 436.44 810.64 436.54 810.89 435.44 809.62 435.12 809.54 436.44"/>
          <polygon class="cls-1" points="574.92 457.76 709.23 476.55 810.11 436.34 809.52 433.82 809.62 435.12 809.79 436.45 800.63 437.29 708.84 473.85 586.51 456.73 800.63 437.29 809.13 433.89 809.62 435.12 809.52 433.82 574.96 455.15 574.92 457.76"/>
          <polygon class="cls-1" points="809.79 436.45 809.62 435.12 809.13 433.89 800.63 437.29 809.79 436.45"/>
          <polygon class="cls-1" points="716.02 635.1 718.66 635.1 710.36 476.09 709.55 476.45 709.01 475.17 710.32 475.18 710.36 476.09 807.74 437.28 758.34 635.1 761.04 635.1 811.52 432.94 707.67 474.35 707.71 475.26 716.02 635.1"/>
          <polygon class="cls-1" points="709.55 476.45 710.36 476.09 710.32 475.18 709.01 475.17 709.55 476.45"/>
          <polygon class="cls-1" points="574.92 457.76 576.72 458.01 576.36 456.23 575.06 456.45 574.92 457.76"/>
          <polygon class="cls-1" points="573.83 456.69 575.06 456.45 576.36 456.23 576.72 458.01 706.21 476.13 600.61 579.16 576.72 458.01 574.92 457.76 575.06 456.45 573.83 456.69 598.91 584.44 711.85 474.27 573.47 454.92 573.83 456.69"/>
          <polygon class="cls-1" points="600.71 582.77 601.45 582.04 600.83 581.13 599.76 581.86 600.71 582.77"/>
          <polygon class="cls-1" points="632.58 635.1 635.68 635.1 601.45 582.04 600.71 582.77 599.76 581.86 600.83 581.13 601.45 582.04 707.86 478.2 716.03 635.1 718.67 635.1 710.19 472.23 598.11 581.62 598.66 582.51 632.58 635.1"/>
          <polygon class="cls-1" points="574.1 458.34 575.64 457.66 575.06 456.45 573.83 456.69 574.1 458.34"/>
          <polygon class="cls-1" points="575.06 456.45 575.64 457.66 574.1 458.34 598.14 580.6 263.33 599.78 574.1 458.34 573.83 456.69 575.06 456.45 574.54 455.28 255.8 600.28 256.42 602.76 601.35 583.04 576.09 454.58 574.54 455.28 575.06 456.45"/>
          <polygon class="cls-1" points="256.42 602.76 257.53 602.7 257.67 601.65 256.38 601.49 256.42 602.76"/>
          <polygon class="cls-1" points="253.35 635.1 257.53 602.7 256.42 602.76 256.38 601.49 257.67 601.65 257.53 602.7 585.55 583.94 376.59 635.1 387.54 635.1 600.08 583.09 599.69 580.51 255.2 600.2 255.03 601.29 250.65 635.1 253.35 635.1"/>
          <polygon class="cls-1" points="599.38 583.63 600.46 582.89 599.76 581.86 598.65 582.51 599.38 583.63"/>
        </g>
      </g>
      <g>
        <path class="cls-2" d="M595.7,577.55c-2.61,3.83-1.62,9.05,2.21,11.66,3.83,2.61,9.05,1.62,11.66-2.22,2.61-3.83,1.62-9.05-2.22-11.66-3.83-2.61-9.05-1.61-11.66,2.21Z"/>
        <path class="cls-2" d="M778.2,412.79c-12.06,17.72-7.48,41.85,10.24,53.9,17.71,12.06,41.84,7.47,53.9-10.25,12.05-17.7,7.47-41.84-10.24-53.89-17.71-12.06-41.85-7.46-53.9,10.24Z"/>
        <path class="cls-2" d="M33.95,241.38c-5.5,8.08-3.41,19.1,4.67,24.6,8.08,5.5,19.1,3.41,24.6-4.67,5.5-8.08,3.41-19.1-4.67-24.6-8.08-5.5-19.1-3.41-24.6,4.68Z"/>
        <path class="cls-2" d="M561.39,444.16c-5.5,8.08-3.41,19.1,4.67,24.6,8.08,5.5,19.1,3.41,24.6-4.67,5.5-8.08,3.41-19.1-4.67-24.6-8.08-5.5-19.1-3.41-24.6,4.68Z"/>
        <path class="cls-2" d="M313.02,635.1c-2.36-.49-4.78-.47-7.11,0h7.11Z"/>
        <path class="cls-2" d="M246.03,594.75c-3.09,4.54-1.92,10.72,2.62,13.81,4.54,3.09,10.72,1.91,13.81-2.62,3.09-4.54,1.92-10.72-2.62-13.81-4.54-3.09-10.72-1.91-13.81,2.63Z"/>
        <path class="cls-2" d="M107.96,626.69c-1.6,2.35-.99,5.54,1.36,7.14,2.35,1.6,5.55.99,7.14-1.36,1.6-2.35.99-5.54-1.36-7.14-2.35-1.6-5.54-.99-7.14,1.36Z"/>
        <path class="cls-2" d="M.89,319.68c-1.6,2.35-.99,5.55,1.36,7.14,2.35,1.6,5.55.99,7.14-1.36,1.6-2.35.99-5.55-1.36-7.14-2.35-1.6-5.55-.99-7.14,1.36Z"/>
        <path class="cls-2" d="M765.58,592.06c-1.6,2.35-.99,5.54,1.36,7.14,2.35,1.6,5.54.99,7.14-1.36,1.6-2.35.99-5.54-1.36-7.14-2.35-1.6-5.55-.99-7.14,1.36Z"/>
        <path class="cls-2" d="M325.69,565.79c-1.6,2.35-.99,5.55,1.36,7.14,2.35,1.6,5.55.99,7.14-1.36,1.6-2.35.99-5.55-1.36-7.14-2.35-1.6-5.55-.99-7.14,1.36Z"/>
        <path class="cls-2" d="M205.39,607.38c-.97,1.42-.6,3.37.82,4.34,1.43.97,3.37.6,4.34-.82.97-1.43.6-3.37-.82-4.34-1.42-.97-3.37-.6-4.34.82Z"/>
        <path class="cls-2" d="M72.86,398.81c-.97,1.43-.6,3.37.82,4.34,1.43.97,3.37.6,4.34-.82.97-1.42.6-3.37-.82-4.34-1.42-.97-3.37-.6-4.34.82Z"/>
        <path class="cls-2" d="M61.08,332.88c-.97,1.42-.6,3.37.82,4.34,1.43.97,3.37.6,4.34-.82.97-1.42.6-3.37-.82-4.34-1.42-.97-3.37-.6-4.34.82Z"/>
        <path class="cls-2" d="M51.27,273.31c-.97,1.42-.6,3.37.82,4.34,1.43.97,3.37.6,4.34-.82s.6-3.37-.82-4.34c-1.42-.97-3.37-.6-4.34.82Z"/>
        <path class="cls-2" d="M105.68,3.12c-2.22,3.25-1.37,7.69,1.88,9.91,3.26,2.22,7.69,1.37,9.91-1.88,2.22-3.26,1.37-7.69-1.88-9.91-3.25-2.22-7.69-1.37-9.91,1.88Z"/>
        <path class="cls-2" d="M236.2,127.07c-2.22,3.25-1.37,7.69,1.88,9.91,3.26,2.22,7.69,1.37,9.91-1.88,2.22-3.26,1.37-7.69-1.88-9.91-3.25-2.22-7.69-1.37-9.91,1.88Z"/>
        <path class="cls-2" d="M319.53,596.93c-.97,1.43-.6,3.37.82,4.34,1.43.97,3.37.6,4.34-.82.97-1.42.6-3.37-.82-4.34-1.42-.97-3.37-.6-4.34.82Z"/>
        <path class="cls-2" d="M684.16,491.32c-.97,1.42-.6,3.37.82,4.34,1.43.97,3.37.6,4.34-.82.97-1.43.6-3.37-.82-4.34-1.42-.97-3.37-.6-4.34.82Z"/>
        <path class="cls-2" d="M759.48,450.04c-.97,1.42-.6,3.37.82,4.34,1.43.97,3.37.6,4.34-.82.97-1.43.6-3.37-.82-4.34-1.43-.97-3.37-.6-4.34.82Z"/>
        <path class="cls-2" d="M751.38,436.97c-.97,1.42-.6,3.37.82,4.34,1.43.97,3.37.6,4.34-.82.97-1.43.6-3.37-.82-4.34-1.43-.97-3.37-.6-4.34.82Z"/>
        <path class="cls-2" d="M666.61,469.93c-.97,1.43-.6,3.37.82,4.34,1.43.97,3.37.6,4.34-.82.97-1.43.6-3.37-.82-4.34-1.42-.97-3.37-.6-4.34.82Z"/>
        <path class="cls-2" d="M415.88,138.52c-2.55,3.74-1.58,8.84,2.16,11.39,3.74,2.55,8.84,1.58,11.39-2.16,2.55-3.74,1.58-8.84-2.16-11.39-3.74-2.55-8.84-1.58-11.39,2.16Z"/>
      </g>
    </g>
  </g>
</svg>