<?xml version="1.0" encoding="UTF-8"?>
<svg xmlns="http://www.w3.org/2000/svg" viewBox="0 0 676.28 594.74">
  <defs>
    <style>
      .cls-1 {
        fill: #cdcccc;
      }

      .cls-1, .cls-2 {
        stroke-width: 0px;
      }

      .cls-3 {
        mix-blend-mode: multiply;
      }

      .cls-2 {
        fill: #4e4d4d;
      }

      .cls-4 {
        opacity: .7;
      }

      .cls-5 {
        isolation: isolate;
      }
    </style>
  </defs>
  <g class="cls-5">
    <g id="Camada_1" data-name="Camada 1">
      <g class="cls-3">
        <g>
          <g>
            <g>
              <polygon class="cls-1" points="384.54 488.64 385.19 488.16 383.9 486.46 383.74 488.61 384.54 488.64"/>
              <polygon class="cls-1" points="385.2 490.89 385.36 488.74 384.54 488.64 383.74 488.61 383.9 486.46 311.98 392.93 394.75 337.76 383.9 486.46 385.19 488.16 384.54 488.64 385.36 488.74 396.65 334.5 309.6 392.52 385.2 490.89"/>
              <polygon class="cls-1" points="394.95 336.46 395.71 336.12 395.23 335.43 394.66 335.82 394.95 336.46"/>
              <polygon class="cls-1" points="310.18 394.12 396.74 336.43 396.44 335.8 395.71 336.12 394.95 336.46 394.66 335.82 311.42 391.31 250.52 13.4 394.66 335.82 395.23 335.43 395.71 336.12 396.44 335.8 249.47 6.97 247.87 7.4 310.18 394.12"/>
              <polygon class="cls-1" points="395.71 336.12 396.44 335.8 394.57 331.59 394.85 336.15 395.71 336.12"/>
              <polygon class="cls-1" points="309.99 392.86 310.82 392.73 311.04 391.93 309.78 391.56 309.99 392.86"/>
              <polygon class="cls-1" points="584.89 534.53 585.49 533.96 585.67 533.16 583 532.55 584.89 534.53"/>
              <polygon class="cls-1" points="587.98 535.35 586.08 533.39 585.49 533.96 584.89 534.53 583 532.55 385.44 488.02 396.39 338.03 583 532.55 585.67 533.16 585.49 533.96 586.08 533.39 395.02 334.21 383.67 489.31 587.98 535.35"/>
              <polygon class="cls-1" points="395.71 336.12 396.51 336.08 396.17 330.08 394.9 335.93 395.71 336.12"/>
              <polygon class="cls-1" points="248.69 7.26 249.36 6.82 248.3 5.24 247.88 7.07 248.69 7.26"/>
              <polygon class="cls-1" points="47.11 594.74 234.36 571.69 224.98 585.48 225.37 585.44 225.43 586.27 224.75 585.81 224.98 585.48 62.76 594.74 91.69 594.74 225.89 587.05 226.1 586.74 236.76 571.08 237.79 569.57 33.66 594.74 47.11 594.74"/>
              <polygon class="cls-1" points="224.75 585.81 225.43 586.27 225.37 585.44 224.98 585.48 224.75 585.81"/>
              <polygon class="cls-1" points="385.8 488.94 385.19 488.16 384.54 488.64 383.88 489.17 383.3 488.41 237.78 568.74 311.01 394.35 383.3 488.41 384.13 487.95 384.54 488.64 385.19 488.16 310.58 391.08 234.37 572.52 385.8 488.94"/>
              <polygon class="cls-1" points="383.88 489.17 384.54 488.64 384.13 487.95 383.3 488.41 383.88 489.17"/>
              <polygon class="cls-1" points="248.01 7.73 248.69 7.26 248.3 6.53 247.46 6.94 248.01 7.73"/>
              <polygon class="cls-1" points="585.49 533.96 586.08 533.39 585.33 532.59 584.79 533.53 585.49 533.96"/>
              <polygon class="cls-1" points="235.98 594.74 226.51 586.13 236.14 572 255.22 594.74 257.37 594.74 236 569.28 224.75 585.81 224.36 586.39 233.53 594.74 235.98 594.74"/>
              <polygon class="cls-1" points="257.38 594.74 237.33 570.85 383.13 490.41 350.56 594.74 352.33 594.74 385.97 486.94 234.77 570.4 255.21 594.74 257.38 594.74"/>
              <polygon class="cls-1" points="352.33 594.74 385.11 489.65 583.19 534.28 473.65 594.74 477.07 594.74 587.8 533.63 383.99 487.7 350.56 594.74 352.33 594.74"/>
              <polygon class="cls-1" points="91.71 594.74 222.2 587.27 210.02 594.74 213.25 594.74 225.88 586.99 225.37 585.44 62.84 594.74 91.71 594.74"/>
              <polygon class="cls-1" points="235.53 571.28 236.08 570.62 235.95 569.81 234.13 570.04 235.53 571.28"/>
              <polygon class="cls-1" points="236.08 570.62 236.61 570 235.73 569.22 235.31 570.3 236.08 570.62"/>
            </g>
            <g class="cls-4">
              <polygon class="cls-1" points="372.15 269.55 372.22 268.76 371.55 268.3 370.75 269.46 372.15 269.55"/>
              <polygon class="cls-1" points="219.33 51.26 221.91 51.86 220.15 49.9 219.53 50.45 219.33 51.26"/>
              <polygon class="cls-1" points="218.9 50.99 220.36 52.6 220.35 50.45 219.53 50.45 218.9 50.99"/>
              <polygon class="cls-1" points="376.68 227.74 377.81 227.52 377.68 226.73 376.82 226.6 376.68 227.74"/>
              <polygon class="cls-1" points="377.7 227.53 378.41 227.5 378.49 226.83 377.68 226.73 377.7 227.53"/>
              <polygon class="cls-1" points="673.29 337.42 675.45 338.46 674.4 336.33 673.65 336.66 673.29 337.42"/>
              <polygon class="cls-1" points="674.48 336.75 674.49 336.73 674.48 336.73 674.48 336.75"/>
              <polygon class="cls-1" points="673.65 336.66 674.48 336.73 674.47 336.6 672.81 336.6 673.65 336.66"/>
              <polygon class="cls-1" points="372.4 269.56 373.17 269.36 373.05 268.62 372.22 268.76 372.4 269.56"/>
              <polygon class="cls-1" points="387.85 348.83 388.55 348.8 388.63 348.07 387.8 348 387.85 348.83"/>
              <polygon class="cls-1" points="363.32 594.74 388.55 348.8 387.85 348.83 387.8 348 388.63 348.07 388.55 348.8 671.61 337.59 424.77 594.74 427.11 594.74 675.67 335.77 387.05 347.18 386.97 347.91 361.65 594.74 363.32 594.74"/>
              <polygon class="cls-1" points="350.26 300.56 350.93 300.04 351.59 299.52 351.95 300 371.77 270.88 386.33 344.71 351.95 300 351.6 300.5 350.93 300.04 350.26 300.56 387.14 348.5 388.63 347.84 372.66 266.65 349.92 300.07 350.26 300.56"/>
              <polygon class="cls-1" points="351.6 300.5 351.95 300 351.59 299.52 350.93 300.04 351.6 300.5"/>
              <polygon class="cls-1" points="350.71 301.13 351.32 300.76 350.93 300.04 350.26 300.56 350.71 301.13"/>
              <polygon class="cls-1" points="350.93 300.04 351.32 300.76 350.71 301.13 386.32 347.4 207.32 380.26 350.71 301.13 350.26 300.56 350.93 300.04 350.53 299.32 202.04 381.26 202.61 382.8 389.28 348.57 351.15 298.95 350.53 299.32 350.93 300.04"/>
              <polygon class="cls-1" points="202.61 382.8 203.45 382.65 203.25 381.79 202.44 381.98 202.61 382.8"/>
              <polygon class="cls-1" points="254.07 594.74 255.78 594.74 203.45 382.65 202.61 382.8 202.44 381.98 203.25 381.79 203.45 382.65 386.49 349.06 293.02 594.74 294.79 594.74 389.11 346.91 201.43 381.31 201.64 382.15 254.07 594.74"/>
              <polygon class="cls-1" points="294.79 594.74 386.32 354.23 386.97 347.91 387.8 348 388.58 348.3 386.32 354.23 361.66 594.74 363.34 594.74 388.63 348.07 387.02 347.69 293.02 594.74 294.79 594.74"/>
              <polygon class="cls-1" points="386.97 347.91 386.32 354.23 388.58 348.3 387.8 348 386.97 347.91"/>
              <polygon class="cls-1" points="201.99 383.48 202.99 382.62 202.44 381.98 201.64 382.15 201.99 383.48"/>
            </g>
          </g>
          <g>
            <path class="cls-2" d="M307.03,390.77c-1.65,2.42-1.02,5.72,1.4,7.37,2.42,1.65,5.72,1.02,7.37-1.4,1.65-2.42,1.02-5.72-1.4-7.37-2.42-1.65-5.72-1.02-7.37,1.4Z"/>
            <path class="cls-2" d="M390.24,331.77c-1.65,2.42-1.02,5.72,1.4,7.37,2.42,1.65,5.72,1.02,7.37-1.4,1.65-2.42,1.02-5.72-1.4-7.37-2.42-1.65-5.72-1.02-7.37,1.4Z"/>
            <path class="cls-2" d="M401.96,252.64c-3.48,5.11-2.15,12.07,2.95,15.55,5.11,3.48,12.07,2.16,15.55-2.95,3.48-5.11,2.16-12.07-2.95-15.55-5.11-3.48-12.07-2.15-15.55,2.96Z"/>
            <path class="cls-2" d="M573.6,525.65c-3.48,5.11-2.15,12.07,2.95,15.55,5.11,3.48,12.07,2.16,15.55-2.95,3.48-5.11,2.16-12.07-2.95-15.55-5.11-3.48-12.07-2.15-15.55,2.96Z"/>
            <path class="cls-2" d="M18.87,594.74c-.59-2.18-1.92-4.17-3.93-5.54-4.46-3.04-10.55-1.88-13.59,2.58-.63.93-1.07,1.93-1.35,2.96h18.87Z"/>
            <path class="cls-2" d="M343.09,298.04c-1.87,2.75-1.16,6.5,1.59,8.37,2.75,1.87,6.5,1.16,8.37-1.59,1.87-2.75,1.16-6.5-1.59-8.37-2.75-1.87-6.49-1.16-8.37,1.59Z"/>
            <path class="cls-2" d="M221.04,586.26c-1.01,1.48-.63,3.5.86,4.52,1.48,1.01,3.5.63,4.51-.86,1.01-1.48.63-3.5-.86-4.51-1.48-1.01-3.51-.63-4.52.86Z"/>
            <path class="cls-2" d="M371.13,222.47c-1.95,2.87-1.21,6.78,1.66,8.73,2.87,1.95,6.78,1.21,8.73-1.66,1.95-2.87,1.21-6.78-1.66-8.73-2.87-1.95-6.78-1.21-8.73,1.66Z"/>
            <path class="cls-2" d="M196.58,380.4c-1.95,2.87-1.21,6.78,1.66,8.73,2.87,1.95,6.78,1.21,8.73-1.66,1.95-2.87,1.21-6.78-1.66-8.73-2.87-1.95-6.78-1.21-8.73,1.66Z"/>
            <path class="cls-2" d="M283.87,242.65c-1.01,1.48-.63,3.5.86,4.51,1.48,1.01,3.51.63,4.52-.86,1.01-1.48.63-3.5-.86-4.51-1.48-1.01-3.5-.63-4.51.86Z"/>
            <path class="cls-2" d="M216.2,48.62c-1.01,1.48-.63,3.51.86,4.52,1.48,1.01,3.51.63,4.52-.86,1.01-1.48.63-3.5-.86-4.51-1.48-1.01-3.5-.63-4.51.86Z"/>
            <path class="cls-2" d="M285.49,276.39c-2.46,3.62-1.53,8.55,2.09,11.01,3.62,2.46,8.55,1.53,11.01-2.09,2.46-3.62,1.53-8.55-2.09-11.01-3.62-2.46-8.55-1.53-11.01,2.09Z"/>
            <path class="cls-2" d="M241.22,3.47c-2.46,3.62-1.53,8.55,2.09,11.01,3.62,2.46,8.55,1.53,11.01-2.09,2.46-3.62,1.53-8.55-2.09-11.01-3.62-2.46-8.55-1.53-11.01,2.09Z"/>
            <path class="cls-2" d="M380.08,485.5c-1.92,2.82-1.19,6.67,1.63,8.59,2.82,1.92,6.67,1.19,8.59-1.63,1.92-2.82,1.19-6.67-1.63-8.59-2.82-1.92-6.67-1.19-8.59,1.63Z"/>
            <path class="cls-2" d="M670.35,334.27c-1.01,1.48-.63,3.5.86,4.51,1.48,1.01,3.5.63,4.51-.86,1.01-1.48.63-3.51-.86-4.52-1.48-1.01-3.51-.62-4.51.86Z"/>
            <path class="cls-2" d="M621.23,387.14c-1.01,1.48-.63,3.5.86,4.51,1.48,1.01,3.5.63,4.52-.86,1.01-1.48.63-3.5-.86-4.51-1.48-1.01-3.5-.63-4.51.86Z"/>
            <path class="cls-2" d="M421.48,204.17c-1.01,1.48-.63,3.51.86,4.52,1.48,1.01,3.51.62,4.52-.86,1.01-1.48.63-3.5-.86-4.51-1.48-1.01-3.5-.63-4.51.86Z"/>
            <path class="cls-2" d="M226.22,565.91c-2.54,3.73-1.57,8.8,2.15,11.33,3.73,2.54,8.8,1.57,11.34-2.15,2.53-3.72,1.57-8.8-2.16-11.33-3.72-2.53-8.8-1.57-11.33,2.15Z"/>
            <path class="cls-2" d="M297.48,326.72c-1.01,1.48-.63,3.5.86,4.51,1.48,1.01,3.5.63,4.51-.86,1.01-1.48.63-3.5-.86-4.51-1.48-1.01-3.5-.63-4.51.86Z"/>
            <path class="cls-2" d="M345.45,230.45c-.61.9-.38,2.13.52,2.74.9.61,2.13.38,2.74-.52.61-.9.38-2.13-.52-2.74-.9-.61-2.13-.38-2.74.52Z"/>
            <path class="cls-2" d="M261.69,98.63c-.61.9-.38,2.13.52,2.74.9.61,2.13.38,2.74-.52.61-.9.38-2.13-.52-2.74-.9-.61-2.13-.38-2.74.52Z"/>
            <path class="cls-2" d="M254.24,56.96c-.61.9-.38,2.13.52,2.74.9.61,2.13.38,2.74-.52.61-.9.38-2.13-.52-2.74-.9-.61-2.13-.38-2.74.52Z"/>
            <path class="cls-2" d="M248.04,19.31c-.61.9-.38,2.13.52,2.74.9.61,2.13.38,2.74-.52.61-.9.38-2.13-.52-2.74-.9-.61-2.13-.38-2.74.52Z"/>
            <path class="cls-2" d="M381.61,341.01c-.61.9-.38,2.13.52,2.74.9.61,2.13.38,2.74-.52.61-.9.38-2.13-.52-2.74-.9-.61-2.13-.38-2.74.52Z"/>
            <path class="cls-2" d="M386.08,349.63c-.61.9-.38,2.13.52,2.74.9.61,2.13.38,2.74-.52.61-.9.38-2.13-.52-2.74-.9-.61-2.13-.38-2.74.52Z"/>
            <path class="cls-2" d="M410.87,258.27c-.61.9-.38,2.13.52,2.74.9.61,2.13.38,2.74-.52.61-.9.38-2.13-.52-2.74-.9-.61-2.13-.38-2.74.52Z"/>
            <path class="cls-2" d="M377.08,299.73c-.61.9-.38,2.13.52,2.74.9.61,2.13.38,2.74-.52.61-.9.38-2.13-.52-2.74-.9-.61-2.13-.38-2.74.52Z"/>
            <path class="cls-2" d="M370.45,267.37c-.61.9-.38,2.13.52,2.74.9.61,2.13.38,2.74-.52.61-.9.38-2.13-.52-2.74-.9-.61-2.13-.38-2.74.52Z"/>
            <path class="cls-2" d="M245.89,563.78c-.61.9-.38,2.13.52,2.74.9.61,2.13.38,2.74-.52.61-.9.38-2.13-.52-2.74-.9-.61-2.13-.38-2.74.52Z"/>
            <path class="cls-2" d="M532.45,479.5c-.61.9-.38,2.13.52,2.74.9.61,2.13.38,2.74-.52.61-.9.38-2.13-.52-2.74-.9-.61-2.13-.38-2.74.52Z"/>
            <path class="cls-2" d="M365.1,274.07c-.61.9-.38,2.13.52,2.74.9.61,2.13.38,2.74-.52.61-.9.38-2.13-.52-2.74-.9-.61-2.13-.38-2.74.52Z"/>
            <path class="cls-2" d="M288.77,261.11c-.61.9-.38,2.13.52,2.74.9.61,2.13.38,2.74-.52.61-.9.38-2.13-.52-2.74-.9-.61-2.13-.38-2.74.52Z"/>
            <path class="cls-2" d="M402.73,345.04c-1.03,1.51-.63,3.56.87,4.58,1.51,1.03,3.56.64,4.58-.87,1.02-1.5.64-3.56-.87-4.58-1.5-1.02-3.56-.63-4.58.87Z"/>
            <path class="cls-2" d="M417.59,223.85c-.61.9-.38,2.13.52,2.74.9.61,2.13.38,2.74-.52.61-.9.38-2.13-.52-2.74-.9-.61-2.13-.38-2.74.52Z"/>
            <path class="cls-2" d="M487.97,342.59c-.61.9-.38,2.13.52,2.74.9.61,2.13.38,2.74-.52.61-.9.38-2.13-.52-2.74-.9-.61-2.13-.38-2.74.52Z"/>
          </g>
        </g>
      </g>
    </g>
  </g>
</svg>