<?xml version="1.0" encoding="utf-8"?>
<!-- Generator: Adobe Illustrator 20.1.0, SVG Export Plug-In . SVG Version: 6.00 Build 0)  -->
<svg version="1.1" id="Camada_1" xmlns="http://www.w3.org/2000/svg" xmlns:xlink="http://www.w3.org/1999/xlink" x="0px" y="0px"
	 viewBox="0 0 644.1 863" style="enable-background:new 0 0 644.1 863;" xml:space="preserve">
<style type="text/css">
	.st0{opacity:0.2;}
	.st1{fill:#CDCCCC;}
	.st2{opacity:0.7;}
	.st3{fill:#4E4D4D;}
</style>
<g class="st0">
	<g>
		<g>
			<g>
				<polygon class="st1" points="644.1,630.9 263.8,800.9 143.6,610.7 644.1,579.9 644.1,577.3 139,608.4 262.8,804.2 644.1,633.8 
									"/>
				<polygon class="st1" points="644.1,577.3 142.7,608.2 153.6,435.4 644.1,541.2 644.1,538.5 151.2,432.2 139.9,611 644.1,579.9 
									"/>
				<polygon class="st1" points="152.1,435 152.4,433.7 151.1,433.7 151,434.8 				"/>
				<polygon class="st1" points="152.4,433.7 153.6,433.3 150.2,424.8 151.1,433.9 				"/>
				<polygon class="st1" points="112.3,334.4 112.3,333.1 111.1,333.7 111.4,334.5 				"/>
				<polygon class="st1" points="263.2,802.6 262.5,801.5 260,803.2 262.9,803.9 				"/>
				<polygon class="st1" points="141.5,607.4 140.4,608.6 141.3,609.5 142.2,610.5 141.1,611.7 260.4,800.6 16.7,742.3 141.1,611.7 
					140.2,610.2 141.3,609.5 140.4,608.6 11.7,743.8 266.1,804.6 				"/>
				<polygon class="st1" points="142.2,610.5 141.3,609.5 140.2,610.2 141.1,611.7 				"/>
				<polygon class="st1" points="14.6,744.4 14.2,743.1 12.9,743 12.8,744.9 				"/>
				<polygon class="st1" points="141.3,609.5 140.4,608.6 139.4,609.7 140.5,610.6 				"/>
				<polygon class="st1" points="14.2,743.1 13.9,741.8 12.3,742.3 13.1,743.7 				"/>
				<polygon class="st1" points="264,803.7 263.2,802.6 262.1,803.2 262.7,804.5 				"/>
				<polygon class="st1" points="644.1,538.5 155.4,433.1 644.1,57.5 644.1,54.2 149.3,434.5 644.1,541.2 				"/>
			</g>
			<g class="st2">
				<polygon class="st1" points="332.4,849.7 331.6,848.7 330.7,847.7 333.8,845 465.8,283.8 608.9,598.2 333.8,845 332.9,849 
					331.6,848.7 332.4,849.7 612,598.8 465,275.8 329.3,852.5 				"/>
				<polygon class="st1" points="332.9,849 333.8,845 330.7,847.7 331.6,848.7 				"/>
				<polygon class="st1" points="332.4,849.7 335,847.4 331.6,847.4 331.6,848.7 				"/>
				<polygon class="st1" points="612.1,600.1 611.7,598.3 610.5,598.5 610.3,599.9 				"/>
				<polygon class="st1" points="445.4,45.3 445.5,44.2 444.4,44 444.1,45.3 				"/>
				<polygon class="st1" points="466.7,280 485.5,145.7 445.3,44.8 442.8,45.4 444.1,45.3 445.4,45.1 446.3,54.3 482.8,146 
					465.7,268.4 446.3,54.3 442.9,45.8 444.1,45.3 442.8,45.4 464.1,279.9 				"/>
				<polygon class="st1" points="445.4,45.1 444.1,45.3 442.9,45.8 446.3,54.3 				"/>
				<polygon class="st1" points="644.1,138.9 644.1,136.2 485.1,144.5 485.4,145.3 484.2,145.9 484.2,144.6 485.1,144.5 446.3,47.1 
					644.1,96.5 644.1,93.8 441.9,43.4 483.3,147.2 484.2,147.2 				"/>
				<polygon class="st1" points="485.4,145.3 485.1,144.5 484.2,144.6 484.2,145.9 				"/>
				<polygon class="st1" points="466.7,280 467,278.2 465.2,278.5 465.4,279.8 				"/>
				<polygon class="st1" points="465.7,281.1 465.4,279.8 465.2,278.5 467,278.2 485.1,148.7 588.1,254.3 467,278.2 466.7,280 
					465.4,279.8 465.7,281.1 593.4,256 483.3,143 463.9,281.4 				"/>
				<polygon class="st1" points="591.8,254.2 591,253.4 590.1,254.1 590.8,255.1 				"/>
				<polygon class="st1" points="644.1,222.3 644.1,219.2 591,253.4 591.8,254.2 590.8,255.1 590.1,254.1 591,253.4 487.2,147 
					644.1,138.9 644.1,136.2 481.2,144.7 590.6,256.8 591.5,256.2 				"/>
				<polygon class="st1" points="467.3,280.8 466.6,279.2 465.4,279.8 465.7,281.1 				"/>
				<polygon class="st1" points="465.4,279.8 466.6,279.2 467.3,280.8 589.6,256.7 608.8,591.6 467.3,280.8 465.7,281.1 
					465.4,279.8 464.3,280.3 609.3,599.1 611.7,598.5 592,253.5 463.6,278.8 464.3,280.3 				"/>
				<polygon class="st1" points="611.7,598.5 611.7,597.4 610.6,597.2 610.5,598.5 				"/>
				<polygon class="st1" points="644.1,601.5 611.7,597.4 611.7,598.5 610.5,598.5 610.6,597.2 611.7,597.4 592.9,269.3 
					644.1,478.3 644.1,467.3 592.1,254.8 589.5,255.2 609.2,599.7 610.3,599.9 644.1,604.2 				"/>
				<polygon class="st1" points="592.6,255.5 591.9,254.4 590.8,255.1 591.5,256.2 				"/>
			</g>
		</g>
		<g>
			<path class="st3" d="M586.5,259.2c3.8,2.6,9,1.6,11.7-2.2s1.6-9-2.2-11.7c-3.8-2.6-9-1.6-11.7,2.2
				C581.7,251.4,582.7,256.6,586.5,259.2L586.5,259.2z"/>
			<path class="st3" d="M421.8,76.7c17.7,12.1,41.9,7.5,53.9-10.2c12.1-17.7,7.5-41.8-10.3-53.9c-17.7-12-41.8-7.5-53.9,10.2
				C399.5,40.5,404.1,64.6,421.8,76.7L421.8,76.7z"/>
			<path class="st3" d="M250.4,820.9c8.1,5.5,19.1,3.4,24.6-4.7c5.5-8.1,3.4-19.1-4.7-24.6s-19.1-3.4-24.6,4.7
				S242.3,815.4,250.4,820.9L250.4,820.9z"/>
			<path class="st3" d="M453.1,293.5c8.1,5.5,19.1,3.4,24.6-4.7c5.5-8.1,3.4-19.1-4.7-24.6c-8.1-5.5-19.1-3.4-24.6,4.7
				C443,277,445.1,288,453.1,293.5L453.1,293.5z"/>
			<path class="st3" d="M644.1,541.9c-0.5,2.4-0.5,4.8,0,7.1V541.9z"/>
			<path class="st3" d="M603.7,608.9c4.5,3.1,10.7,1.9,13.8-2.6s1.9-10.7-2.6-13.8c-4.5-3.1-10.7-1.9-13.8,2.6
				C598,599.6,599.2,605.8,603.7,608.9L603.7,608.9z"/>
			<path class="st3" d="M635.7,746.9c2.3,1.6,5.5,1,7.1-1.4c1.6-2.4,1-5.6-1.4-7.1c-2.3-1.6-5.5-1-7.1,1.4
				C632.7,742.1,633.3,745.3,635.7,746.9z"/>
			<path class="st3" d="M328.7,854c2.4,1.6,5.5,1,7.1-1.4c1.6-2.3,1-5.5-1.4-7.1c-2.4-1.6-5.5-1-7.1,1.4
				C325.7,849.2,326.3,852.4,328.7,854z"/>
			<path class="st3" d="M601,89.3c2.3,1.6,5.5,1,7.1-1.4c1.6-2.3,1-5.5-1.4-7.1c-2.3-1.6-5.5-1-7.1,1.4
				C598.1,84.5,598.7,87.7,601,89.3z"/>
			<path class="st3" d="M574.8,529.2c2.3,1.6,5.5,1,7.1-1.4c1.6-2.3,1-5.5-1.4-7.1c-2.3-1.6-5.5-1-7.1,1.4
				C571.8,524.4,572.4,527.6,574.8,529.2z"/>
			<path class="st3" d="M616.4,649.5c1.4,1,3.4,0.6,4.3-0.8c1-1.4,0.6-3.4-0.8-4.3c-1.4-1-3.4-0.6-4.3,0.8
				C614.6,646.6,614.9,648.5,616.4,649.5z"/>
			<path class="st3" d="M407.8,782c1.4,1,3.4,0.6,4.3-0.8c1-1.4,0.6-3.4-0.8-4.3c-1.4-1-3.4-0.6-4.3,0.8
				C406,779.1,406.4,781.1,407.8,782z"/>
			<path class="st3" d="M341.9,793.8c1.4,1,3.4,0.6,4.3-0.8c1-1.4,0.6-3.4-0.8-4.3c-1.4-1-3.4-0.6-4.3,0.8S340.4,792.8,341.9,793.8z
				"/>
			<path class="st3" d="M282.3,803.6c1.4,1,3.4,0.6,4.3-0.8c1-1.4,0.6-3.4-0.8-4.3c-1.4-1-3.4-0.6-4.3,0.8S280.9,802.6,282.3,803.6z
				"/>
			<path class="st3" d="M12.1,749.2c3.3,2.2,7.7,1.4,9.9-1.9c2.2-3.3,1.4-7.7-1.9-9.9c-3.3-2.2-7.7-1.4-9.9,1.9S8.9,747,12.1,749.2z
				"/>
			<path class="st3" d="M136.1,618.7c3.3,2.2,7.7,1.4,9.9-1.9c2.2-3.3,1.4-7.7-1.9-9.9c-3.3-2.2-7.7-1.4-9.9,1.9
				S132.8,616.5,136.1,618.7L136.1,618.7z"/>
			<path class="st3" d="M605.9,535.4c1.4,1,3.4,0.6,4.3-0.8c1-1.4,0.6-3.4-0.8-4.3c-1.4-1-3.4-0.6-4.3,0.8
				C604.1,532.4,604.5,534.4,605.9,535.4z"/>
			<path class="st3" d="M500.3,170.7c1.4,1,3.4,0.6,4.3-0.8c1-1.4,0.6-3.4-0.8-4.3c-1.4-1-3.4-0.6-4.3,0.8S498.9,169.8,500.3,170.7z
				"/>
			<path class="st3" d="M459,95.4c1.4,1,3.4,0.6,4.3-0.8c1-1.4,0.6-3.4-0.8-4.3c-1.4-1-3.4-0.6-4.3,0.8
				C457.2,92.5,457.6,94.4,459,95.4z"/>
			<path class="st3" d="M446,103.5c1.4,1,3.4,0.6,4.3-0.8c1-1.4,0.6-3.4-0.8-4.3c-1.4-1-3.4-0.6-4.3,0.8
				C444.2,100.6,444.5,102.5,446,103.5z"/>
			<path class="st3" d="M478.9,188.3c1.4,1,3.4,0.6,4.3-0.8c1-1.4,0.6-3.4-0.8-4.3c-1.4-1-3.4-0.6-4.3,0.8S477.5,187.3,478.9,188.3z
				"/>
			<path class="st3" d="M147.5,439c3.7,2.5,8.8,1.6,11.4-2.2s1.6-8.8-2.2-11.4c-3.7-2.5-8.8-1.6-11.4,2.2S143.8,436.5,147.5,439z"/>
		</g>
	</g>
</g>
</svg>
