<?xml version="1.0" encoding="UTF-8"?>
<svg id="Camada_2" data-name="Camada 2" xmlns="http://www.w3.org/2000/svg" version="1.1" viewBox="0 0 29.5 29.4">
  <defs>
    <style>
      .cls-1 {
        fill: none;
        stroke: #fff;
        stroke-miterlimit: 10;
      }
    </style>
  </defs>
  <g id="Camada_1-2" data-name="Camada 1-2">
    <g>
      <path class="cls-1" d="M6.3,15.1l-5.7,2.8c.7,3,2.2,5.6,4.4,7.6l5.6-3.3M19,7.6V1.2c-1.4-.4-2.8-.7-4.3-.7h0c-1.5,0-3,.2-4.4.7v6.3M19.1,22.1l5.5,3.2c2.1-2,3.7-4.6,4.3-7.6l-5.6-2.6"/>
      <path class="cls-1" d="M14.8,23.6c-1.5,0-2.8-.4-4-1v5.6c1.2.4,2.6.6,3.9.6h0c1.5,0,2.9-.2,4.2-.7v-5.6c-1.2.7-2.6,1.1-4.1,1.1h0Z"/>
      <path class="cls-1" d="M9.7,7.4l-4.2-2.4c-2,1.9-3.5,4.3-4.1,7.1l4.6,2.6c0-3,1.5-5.6,3.9-7.2h-.2Z"/>
      <path class="cls-1" d="M23.6,14.7l4.4-2.6c-.8-3-2.2-5.4-4.1-7.1l-4.4,2.6c2.4,1.5,4,4.1,4.1,7.1h0Z"/>
    </g>
  </g>
  <circle class="cls-1" cx="14.8" cy="14.7" r="4.9"/>
</svg>